# xmcd
#
# Track frame offsets: 
#        150
#        11823
#        23666
#        37011
#        50779
#        66214
#        80761
#        93942
#        108744
#        120579
#        132986
#        146896
#        158940
#        172059
#        186448
#        200119
#        212392
#        225503
#        236867
#        248464
#
# Disc length: 3486 seconds
#
# Revision: 8
# Processed by: cddbd v1.5.2PL0 Copyright (c) Steve Scherf et al.
# Submitted via: ExactAudioCopy v1.0b3
#
DISCID=280d9c14
DTITLE=Louis Armstrong - It's Louis Armstrong_CD05
DYEAR=2005
DGENRE=Jazz
TTITLE0=Mahogany Hall Stomp
TTITLE1=Swing You Cats
TTITLE2=Honey, Don´t You Love Me Anymore ¿
TTITLE3=Mississippi Basin
TTITLE4=Laughin´ Louis
TTITLE5=Tomorrow Night
TTITLE6=Dusky Stevedore
TTITLE7=There´s A Cabin In The Pines
TTITLE8=Mighty River
TTITLE9=Sweet Sue, Just You
TTITLE10=I Wonder Who
TTITLE11=St. Louis Blues
TTITLE12=Don´t Play Me Cheap
TTITLE13=I´m In The Mood For Love
TTITLE14=You Are My Lucky Star
TTITLE15=La Cucaracha
TTITLE16=Got A Bran´ New Suit
TTITLE17=I´ve Got My Fingers Crossed
TTITLE18=Old Man Mose
TTITLE19=I´m Shooting High
EXTD=
EXTT0=
EXTT1=
EXTT2=
EXTT3=
EXTT4=
EXTT5=
EXTT6=
EXTT7=
EXTT8=
EXTT9=
EXTT10=
EXTT11=
EXTT12=
EXTT13=
EXTT14=
EXTT15=
EXTT16=
EXTT17=
EXTT18=
EXTT19=
PLAYORDER=
